<svg width="56" height="37" viewBox="0 0 56 37" fill="none" xmlns="http://www.w3.org/2000/svg">
<g filter="url(#filter0_d_2205_27778)">
<rect x="8" y="7" width="40" height="20.0571" rx="10.0286" fill="#E0F6E2"/>
<rect x="8.125" y="7.125" width="39.75" height="19.8071" rx="9.90357" stroke="#D0F1D3" stroke-width="0.25"/>
</g>
<circle cx="38" cy="17" r="8.125" fill="#49C858" stroke="#39BC48" stroke-width="0.25"/>
<g clip-path="url(#clip0_2205_27778)">
<path d="M41.5424 13.4532C40.6024 12.5166 39.3524 12.0006 38.0206 12C35.2762 12 33.0429 14.2228 33.0418 16.955C33.0415 17.8283 33.2707 18.6808 33.7063 19.4323L33 22L35.6393 21.311C36.3665 21.7058 37.1853 21.9139 38.0185 21.9142H38.0206H38.0206C40.7645 21.9142 42.9982 19.691 42.9994 16.959C42.9998 15.6349 42.4824 14.3898 41.5424 13.4532ZM38.0206 21.0773H38.019C37.2763 21.0769 36.548 20.8784 35.9128 20.5031L35.7616 20.4139L34.1954 20.8227L34.6135 19.3029L34.515 19.1471C34.1008 18.4913 33.8821 17.7335 33.8824 16.9553C33.8833 14.6844 35.7396 12.8369 38.0222 12.8369C39.1275 12.8374 40.1664 13.2664 40.9478 14.0448C41.7291 14.8232 42.159 15.8581 42.1587 16.9586C42.1577 19.2296 40.3014 21.0773 38.0206 21.0773Z" fill="#E0E0E0"/>
<path d="M33.2305 21.7149L33.9045 19.2645C33.4887 18.5473 33.27 17.7337 33.2703 16.9004C33.2713 14.2931 35.4027 12.1719 38.0215 12.1719C39.2925 12.1724 40.4854 12.6649 41.3823 13.5587C42.2794 14.4525 42.7732 15.6406 42.7726 16.9041C42.7716 19.5114 40.6401 21.6328 38.0216 21.6328C38.0215 21.6328 38.0218 21.6328 38.0216 21.6328H38.0195C37.2244 21.6326 36.4431 21.4339 35.7492 21.0573L33.2305 21.7149Z" fill="url(#paint0_linear_2205_27778)"/>
<path fill-rule="evenodd" clip-rule="evenodd" d="M36.7903 14.8511C36.6982 14.6472 36.6012 14.6432 36.5136 14.6396C36.4419 14.6365 36.3598 14.6367 36.2779 14.6367C36.1959 14.6367 36.0627 14.6674 35.95 14.7899C35.8373 14.9124 35.5195 15.2086 35.5195 15.8109C35.5195 16.4134 35.9602 16.9954 36.0217 17.0772C36.0832 17.1588 36.8724 18.4344 38.1223 18.9252C39.1611 19.333 39.3725 19.2519 39.598 19.2315C39.8235 19.2111 40.3256 18.9354 40.4281 18.6495C40.5305 18.3636 40.5305 18.1186 40.4998 18.0674C40.469 18.0164 40.3871 17.9858 40.2641 17.9246C40.1411 17.8633 39.5365 17.5671 39.4238 17.5263C39.311 17.4855 39.229 17.4651 39.1471 17.5876C39.0651 17.7101 38.8295 17.9858 38.7578 18.0674C38.686 18.1492 38.6143 18.1594 38.4913 18.0982C38.3683 18.0368 37.9723 17.9076 37.5024 17.4906C37.1368 17.1661 36.89 16.7653 36.8183 16.6427C36.7465 16.5203 36.8106 16.454 36.8723 16.3929C36.9275 16.3381 36.9953 16.25 37.0568 16.1785C37.1181 16.107 37.1386 16.056 37.1796 15.9744C37.2206 15.8926 37.2001 15.8211 37.1694 15.7599C37.1386 15.6987 36.8996 15.0932 36.7903 14.8511Z" fill="white"/>
<path d="M41.503 13.4375C40.5737 12.5117 39.3381 12.0016 38.0216 12.001C35.3087 12.001 33.101 14.1983 33.0999 16.8991C33.0996 17.7624 33.3262 18.6051 33.7568 19.3479L33.0586 21.8862L35.6676 21.2051C36.3865 21.5954 37.1958 21.801 38.0195 21.8014H38.0215H38.0216C40.734 21.8014 42.942 19.6037 42.9432 16.903C42.9436 15.5941 42.4321 14.3634 41.503 13.4375ZM38.0216 20.9741H38.02C37.2858 20.9737 36.5659 20.7775 35.9379 20.4065L35.7885 20.3183L34.2402 20.7224L34.6536 19.2201L34.5562 19.0661C34.1467 18.4178 33.9305 17.6686 33.9309 16.8994C33.9317 14.6546 35.7667 12.8283 38.0231 12.8283C39.1158 12.8288 40.1427 13.2528 40.9151 14.0223C41.6875 14.7918 42.1125 15.8148 42.1122 16.9027C42.1112 19.1476 40.2762 20.9741 38.0216 20.9741Z" fill="white"/>
</g>
<defs>
<filter id="filter0_d_2205_27778" x="0" y="0" width="56" height="36.0576" filterUnits="userSpaceOnUse" color-interpolation-filters="sRGB">
<feFlood flood-opacity="0" result="BackgroundImageFix"/>
<feColorMatrix in="SourceAlpha" type="matrix" values="0 0 0 0 0 0 0 0 0 0 0 0 0 0 0 0 0 0 127 0" result="hardAlpha"/>
<feOffset dy="1"/>
<feGaussianBlur stdDeviation="4"/>
<feComposite in2="hardAlpha" operator="out"/>
<feColorMatrix type="matrix" values="0 0 0 0 0.108 0 0 0 0 0.372 0 0 0 0 0.132 0 0 0 0.08 0"/>
<feBlend mode="normal" in2="BackgroundImageFix" result="effect1_dropShadow_2205_27778"/>
<feBlend mode="normal" in="SourceGraphic" in2="effect1_dropShadow_2205_27778" result="shape"/>
</filter>
<linearGradient id="paint0_linear_2205_27778" x1="38.0016" y1="21.7149" x2="38.0016" y2="12.1719" gradientUnits="userSpaceOnUse">
<stop stop-color="#20B038"/>
<stop offset="1" stop-color="#60D66A"/>
</linearGradient>
<clipPath id="clip0_2205_27778">
<rect width="10" height="10" fill="white" transform="translate(33 12)"/>
</clipPath>
</defs>
</svg>
